<svg width="87" height="87" viewBox="0 0 87 87" fill="none" xmlns="http://www.w3.org/2000/svg">
<path d="M48.5455 0C61.3118 1.77273 72.8809 8.51455 80.0236 19.5736C79.0827 19.6145 78.2455 19.8927 77.9045 20.5473L76.3227 23.5827C75.5182 22.5191 75.0845 21.0518 73.89 21.0655C72.7582 21.0791 72.1118 22.9364 71.8991 23.7682C71.8745 23.8664 72.1636 24.0845 72.2509 24.1364C72.5155 24.2945 72.7827 22.7891 73.6609 22.7755L75.5564 25.6609L74.2609 28.6582C74.19 28.8218 73.83 29.3345 73.6555 29.2936L72.8291 29.1055C72.4882 29.0264 72.0191 29.6318 71.9946 29.9945C71.9618 30.4636 72.3327 31.2736 72.7309 31.3609C73.1291 31.4482 74.0864 31.0364 74.2609 30.6491L76.0609 26.6427C76.9118 27.8209 77.5936 29.4927 78.8564 29.8527C80.2146 29.5827 81.3709 27.8509 81.0109 26.4436L79.3609 28.23L76.8245 24.5618L78.2864 21.5509L79.9773 21.7691L80.2364 19.9118C83.9591 25.6609 85.9855 32.0755 87 38.7245V43.5545C85.77 43.8327 83.9645 43.9991 82.9445 44.7245C82.0364 45.3682 81.8182 46.6282 80.31 46.3609C79.5109 46.2191 78.4855 45.6655 78.4418 44.4409L86.6727 42.3136C86.3618 40.1345 85.4591 37.8027 83.2473 36.6927C80.1491 35.1409 75.7636 36.1827 74.01 39.3545C72.4309 42.2182 73.3227 46.0309 75.4909 48.2645C77.3045 50.1327 79.89 50.1355 82.1755 49.4973C84.4609 48.8591 86.1927 47.4218 87 45.2591V48.2727C84.3327 68.7791 69.06 84.2482 48.5455 87H38.4545C25.0473 85.1482 12.9218 77.8255 5.91545 65.7055C8.36727 67.6691 10.8627 68.0646 13.6091 67.0882C16.5327 66.0491 18.5155 63.57 17.55 60.2018L13.4073 61.2764C13.3091 62.1655 13.14 62.9318 12.7473 63.33C12.2918 63.7909 11.1845 63.9955 10.6718 63.4964C9.31909 62.1873 8.80091 60.1909 9.30818 58.35C9.48 57.7255 10.4182 57.4118 11.0509 57.4718C11.6836 57.5318 12.1882 58.0855 12.7227 59.0155L16.9827 58.0118C16.4373 55.1591 13.9773 53.5445 11.1682 53.6864C8.71091 53.8118 6.37636 54.8236 5.05364 56.9018C3.79909 58.8764 4.24909 60.9927 4.62 63.3218C2.02636 58.6609 0.916364 53.6045 0 48.5455V38.4545C2.73545 17.9373 18.18 2.70818 38.4545 0H48.5455ZM62.1682 32.6155C62.19 33.1009 62.8145 33.8318 63.18 33.8291C65.2173 33.8155 66.3273 30.9845 67.3036 29.4164L67.71 31.8082C67.7455 32.0127 67.9309 32.3509 68.0727 32.46C68.8718 33.0791 71.3673 30.3736 70.9227 29.2036L69.3055 30.5345C68.9891 27.7445 68.9891 25.2682 68.9509 22.2491C68.2909 22.5545 67.6282 22.9964 67.2055 23.4491C67.5245 26.6182 67.0882 30.1473 64.0364 32.1818C63.3682 30.2373 64.35 24.0955 62.9782 23.7382C61.9309 24.1855 61.0309 25.2545 60.3245 26.2582L60.5455 27.0464L61.8436 25.7973L62.1655 32.61L62.1682 32.6155ZM37.5355 37.41L38.1191 39.9109C38.4055 41.1409 41.5691 38.6127 41.1927 36.8755L39.5918 38.3073C39.4009 36.6136 39.27 35.0045 39.2127 33.2809L38.9155 24.2673C37.6773 24.7391 36.5727 25.2873 35.1245 26.1655C36.0136 26.3945 36.15 26.34 37.1155 26.3318L37.4018 30.45C33.8618 30.7991 31.4973 33.7936 31.5955 37.3664C31.6336 38.7927 31.8273 40.2545 32.9427 41.2364C34.5873 42.6818 37.0773 38.46 37.5327 37.41H37.5355ZM57.4364 35.49C58.9855 34.7427 60.0409 33.7336 60.1418 31.9145L58.4864 33.3518C58.2655 30.6764 58.1264 28.2982 58.05 25.4945C54.8318 25.1073 51.7527 27.21 51.0191 30.5536C50.46 33.1009 51.1855 36.57 52.7755 36.5645C54.5345 36.5564 55.8436 33.4445 56.6455 32.1464C56.6755 33.3845 56.7055 34.47 57.4364 35.4927V35.49ZM48.7636 34.9909C47.9727 35.8473 47.1109 37.0064 45.7991 36.7745C44.7818 36.5973 44.1245 34.89 44.3509 34.0745C45.6982 33.2891 47.0727 32.5691 48.0491 31.4345C48.8236 30.5345 48.93 28.8491 47.8527 28.2764C46.5955 27.6082 45.1909 28.3255 44.2282 29.2745C42.1418 31.3309 41.7764 34.6745 43.1427 37.2709C43.7155 38.3591 44.8609 38.6782 46.0418 38.3482C48.9818 37.53 50.0945 33.5455 49.2218 34.4918L48.7636 34.9882V34.9909ZM24.8045 38.2909L24.8727 43.6391C25.4836 43.4809 26.1955 43.2245 26.5145 42.9245C27.0845 42.3873 25.7673 36.9436 28.2136 34.6118C28.6555 34.8218 29.2664 35.2173 29.4382 35.0073C29.5827 34.8327 29.8582 34.3309 29.9836 34.02C30.1227 33.6791 29.8227 32.7927 29.4982 32.6291C27.9136 31.83 26.7764 35.5227 26.2745 36.2973C26.2636 35.19 26.2118 34.1155 25.4564 33.3491C24.1064 34.1455 23.0045 35.0564 23.0536 36.6545L24.5591 35.4109C24.6764 36.3518 24.7909 37.2927 24.8045 38.2909ZM1.60091 49.4755L8.02909 47.8145C9.51818 47.43 10.9582 46.3309 11.6618 44.9918C12.2618 43.8491 12.1418 42.4145 11.3945 41.3945C10.8436 40.6418 9.62455 40.2164 8.43273 39.9818C9.45 39.3545 10.4618 38.4164 10.6255 37.0609C10.7318 36.1855 10.2927 35.1109 9.71182 34.5927C7.79727 32.88 3.35455 34.8355 0.537273 35.5827C1.40182 36.0136 1.73727 36.0191 2.64818 36.18L3.09273 42.2836C3.23727 44.2582 3.28909 46.2 3.24545 48.0982C2.40273 48.5427 1.87909 48.3545 1.60636 49.4755H1.60091ZM18.6955 45.2318C21.7991 43.4809 22.6991 39.4555 21.0409 36.5018C20.2418 35.0782 18.6109 34.9227 17.2636 35.5909C14.3236 37.05 13.2218 40.2682 14.1791 43.4482C14.4245 44.2609 15.1391 45.1936 15.7609 45.4718C16.6391 45.8673 17.7218 45.78 18.6955 45.2291V45.2318ZM70.5927 52.1291L68.9236 45.6C68.5173 44.01 69.4718 42.7064 71.0891 42.4636C71.4218 42.4145 72.0709 42.1691 72.3327 42.0382L71.3509 38.4764C70.5818 38.2745 69.3245 38.6236 68.8146 39.2073C68.2773 39.8264 68.0182 40.7509 67.77 41.7409L67.1755 39.4364L62.5745 40.6391L65.8146 53.3127L70.5927 52.1291ZM50.1082 53.1C50.8664 55.7291 53.5227 56.8309 55.8818 56.1818C57.5809 55.7127 58.62 54.5591 58.7482 52.8655L59.6264 54.9436L64.1236 53.7982L60.8618 41.0809L56.1055 42.2864L57.9818 49.7427C58.2436 50.7818 57.4227 51.7582 56.5773 51.8727C55.6473 51.9982 54.7445 51.51 54.4855 50.5173L52.5927 43.2382L47.88 44.3755C48.5455 47.2827 49.2382 50.0891 50.1082 53.1027V53.1ZM49.65 57.3218L48.7009 54.0709C48.0273 54.3191 46.74 54.4336 46.4318 53.9645L45.0682 48.9L47.2827 48.1827L46.3527 44.8118L44.2009 45.3191L43.4373 42.5945L38.7 43.7918L39.3545 46.5055L37.7536 47.1082L38.6264 50.4409L40.2982 50.1464L41.9891 56.4818C42.7691 59.4055 47.6127 58.3282 49.65 57.3191V57.3218ZM35.0236 61.2682L39.7636 60.0355L35.5227 43.4645L30.7391 44.6618L35.0236 61.2655V61.2682ZM19.2355 61.0691C19.92 63.7091 22.7127 64.7755 25.0636 64.1045C26.8636 63.5918 27.8073 62.2745 27.9245 60.4991L28.6473 62.8909L33.2455 61.7018L29.9782 48.9927L25.2409 50.2691L27.0764 57.5509C27.3409 58.5955 26.7055 59.6264 25.7891 59.7791C24.8727 59.9318 23.8936 59.5282 23.6182 58.47L21.6955 51.1227L16.98 52.35L19.2409 61.0718L19.2355 61.0691Z" fill="#F5F5F5"/>
<path d="M81.63 40.8082L77.7409 41.82C77.6454 40.7127 78.2455 39.8373 79.0064 39.63C79.9991 39.3573 80.91 39.3491 81.63 40.8109V40.8082Z" fill="#F5F5F5"/>
<path d="M5.38636 47.04L4.88727 41.6154C5.85545 40.8927 7.68818 40.6418 8.78727 41.4436C10.0609 42.3736 10.2109 44.34 9.37363 45.7254C8.7409 46.7727 7.03636 47.7763 5.38636 47.04Z" fill="#F5F5F5"/>
<path d="M4.94181 40.4618L4.58453 35.4627C5.61817 34.83 6.86726 34.5791 7.77817 35.3454C8.68908 36.1118 8.8909 37.7754 8.21453 38.7845C7.46453 39.9054 6.2509 40.32 4.93908 40.4645L4.94181 40.4618Z" fill="#F5F5F5"/>
<path d="M37.38 32.0018C38.2445 34.29 36.2536 39.9082 34.5382 39.5809C33.3982 39.3627 33.0845 35.6673 33.6818 33.7445C34.1918 32.1027 35.7273 31.44 37.38 32.0018Z" fill="#F5F5F5"/>
<path d="M53.7573 34.8655C52.2573 33.1664 52.4127 30.7009 52.9773 28.7482C53.4054 27.2645 54.9054 26.5773 56.3618 26.8527C56.7491 29.6673 56.2227 32.7273 53.7573 34.8655Z" fill="#F5F5F5"/>
<path d="M17.8636 36.4364C20.5309 36.4364 20.7354 44.2336 18.1064 44.5036C15.6654 44.7545 15.4118 39.9818 16.1154 37.7073C16.3391 36.9845 17.2118 36.4364 17.8636 36.4364Z" fill="#F5F5F5"/>
<path d="M46.9336 30.6927C46.5927 32.1191 45.33 32.6864 44.2145 33.1391C44.0018 31.8655 44.1218 30.4936 45.1091 29.5309C45.3545 29.2936 46.1073 29.1627 46.4154 29.2636C46.7236 29.3646 47.0454 30.2209 46.9309 30.6927H46.9336Z" fill="#F5F5F5"/>
</svg>
