<svg width="198" height="46" viewBox="0 0 198 46" fill="none" xmlns="http://www.w3.org/2000/svg">
<path d="M65.5076 0.0671387H67.5083L61.5738 14.0963H61.1179L55.0568 0.0671387H57.0828L61.3121 9.87331L65.5076 0.0671387Z" fill="#F5F5F5"/>
<path d="M68.842 4.8359H70.6739V14.0376H68.842V4.8359ZM69.7453 0.965488C70.0492 0.965488 70.3024 1.06624 70.5219 1.27613C70.7414 1.48602 70.8427 1.73789 70.8427 2.04014C70.8427 2.34238 70.733 2.58586 70.5219 2.79575C70.3109 3.01404 70.0492 3.11479 69.7453 3.11479C69.4667 3.11479 69.2135 3.00564 69.0024 2.78735C68.7914 2.56907 68.6816 2.31719 68.6816 2.03174C68.6816 1.74629 68.7914 1.50281 69.0024 1.28452C69.2135 1.06624 69.4667 0.957092 69.7453 0.957092" fill="#F5F5F5"/>
<path d="M75.1902 0.0671387H73.3583V14.046H75.1902V0.0671387Z" fill="#F5F5F5"/>
<path d="M79.7065 0.0671387H77.8747V14.046H79.7065V0.0671387Z" fill="#F5F5F5"/>
<path d="M83.767 8.50484H88.4268C88.3761 7.77442 88.1651 7.2203 87.7683 6.8257C87.38 6.4311 86.8566 6.238 86.1982 6.238C85.5397 6.238 84.9994 6.4311 84.5858 6.8257C84.1637 7.2203 83.8936 7.78281 83.767 8.50484ZM90.2333 9.59628H83.7247C83.7754 10.4778 84.0709 11.1747 84.6111 11.6952C85.1598 12.2157 85.8605 12.476 86.73 12.476C87.9372 12.476 89.0515 12.0982 90.0729 11.351V13.1309C89.5073 13.5087 88.9502 13.7689 88.4014 13.9285C87.8527 14.088 87.2027 14.1719 86.4514 14.1719C85.43 14.1719 84.6027 13.962 83.978 13.5423C83.3449 13.1225 82.8468 12.56 82.4669 11.8463C82.0871 11.1327 81.9013 10.3099 81.9013 9.37799C81.9013 7.97591 82.2981 6.84249 83.1001 5.96095C83.8936 5.0794 84.9319 4.64282 86.2066 4.64282C87.4813 4.64282 88.4099 5.071 89.1443 5.91897C89.8787 6.76693 90.2417 7.91714 90.2417 9.35281V9.57949L90.2333 9.59628Z" fill="#F5F5F5"/>
<path d="M104.111 12.476V6.64097C103.537 6.35551 102.963 6.21279 102.381 6.21279C101.469 6.21279 100.743 6.50664 100.203 7.10273C99.6627 7.69882 99.3926 8.49641 99.3926 9.5039C99.3926 10.4526 99.6289 11.183 100.093 11.6952C100.372 12.0058 100.676 12.2073 100.988 12.3165C101.3 12.4256 101.866 12.476 102.685 12.476H104.103H104.111ZM104.111 0.0671387H105.952V14.046H102.043C100.676 14.046 99.5867 13.6178 98.7679 12.753C97.949 11.8967 97.5438 10.7381 97.5438 9.294C97.5438 7.9423 97.9743 6.82567 98.827 5.95252C99.6796 5.07937 100.777 4.64279 102.102 4.64279C102.719 4.64279 103.385 4.76873 104.111 5.02899V0.0671387Z" fill="#F5F5F5"/>
<path d="M109.86 8.50484H114.52C114.469 7.77442 114.258 7.2203 113.862 6.8257C113.473 6.4311 112.95 6.238 112.291 6.238C111.633 6.238 111.093 6.4311 110.679 6.8257C110.257 7.2203 109.987 7.78281 109.86 8.50484ZM116.327 9.59628H109.818C109.869 10.4778 110.164 11.1747 110.704 11.6952C111.253 12.2157 111.954 12.476 112.823 12.476C114.03 12.476 115.145 12.0982 116.166 11.351V13.1309C115.601 13.5087 115.043 13.7689 114.495 13.9285C113.946 14.088 113.296 14.1719 112.545 14.1719C111.523 14.1719 110.696 13.962 110.071 13.5423C109.438 13.1225 108.94 12.56 108.56 11.8463C108.18 11.1327 107.995 10.3099 107.995 9.37799C107.995 7.97591 108.391 6.84249 109.193 5.96095C109.987 5.0794 111.025 4.64282 112.3 4.64282C113.575 4.64282 114.503 5.071 115.238 5.91897C115.972 6.76693 116.335 7.91714 116.335 9.35281V9.57949L116.327 9.59628Z" fill="#F5F5F5"/>
<path d="M62.5699 42.1632C64.7225 42.1632 65.6258 41.0801 65.6258 39.2247C65.6258 37.6883 64.8829 36.2526 62.8906 36.2526H60.9575V42.1716H62.5614L62.5699 42.1632ZM62.0212 32.6928C63.9205 32.6928 64.8829 31.8281 64.8829 30.0398C64.8829 28.2515 63.9796 27.4203 62.0212 27.4203H60.9575V32.6928H62.0212ZM55.9769 23.869H63.4056C67.905 23.869 69.8719 26.7151 69.8719 29.4017C69.8719 31.3495 68.842 32.9195 66.9173 33.843C69.357 34.9597 70.6148 36.7815 70.6148 39.2835C70.6148 42.7677 68.0148 45.7146 63.4816 45.7146H55.9853V23.8774L55.9769 23.869Z" fill="#F5F5F5"/>
<path d="M81.6143 41.7098C83.9273 41.7098 85.1852 40.0139 85.1852 34.775C85.1852 31.0053 84.5774 27.8653 81.6143 27.8653C78.913 27.8653 78.0435 30.4848 78.0435 34.775C78.0435 39.0652 78.8792 41.7098 81.6143 41.7098ZM81.6143 23.5835C85.7001 23.5835 90.2586 26.6227 90.2586 34.8085C90.2586 42.9943 85.3371 46 81.6143 46C77.3681 46 72.9616 42.7677 72.9616 34.5819C72.9616 27.1601 77.3344 23.5835 81.6143 23.5835Z" fill="#F5F5F5"/>
<path d="M99.8737 32.7264C101.545 32.7264 102.575 31.8281 102.575 30.107C102.575 28.3858 101.646 27.647 99.8146 27.647H98.3036V32.7348H99.8822L99.8737 32.7264ZM93.3145 23.869H100.482C104.981 23.869 107.556 26.3961 107.556 29.9726C107.556 32.4326 106.467 34.0026 103.858 35.0856C105.817 36.1686 106.593 41.0633 108.459 45.7062H103.284L102.094 41.6091C100.709 36.8739 100.389 36.4961 98.3036 36.4961V45.7062H93.323V23.869H93.3145Z" fill="#F5F5F5"/>
<path d="M117.238 42.0288C120.843 42.0288 121.966 39.2499 121.966 34.8673C121.966 30.745 120.936 27.5463 117.5 27.5463H116.056V42.0288H117.247H117.238ZM111.067 23.869H117.559C124.439 23.869 127.048 29.3094 127.048 34.6154C127.048 39.6361 124.608 45.7146 117.821 45.7146H111.067V23.8774V23.869Z" fill="#F5F5F5"/>
<path d="M129.96 23.869H142.758V27.6386H134.941V32.7264H142.209V36.4961H134.941V41.9365H143.045V45.7062H129.96V23.869Z" fill="#F5F5F5"/>
<path d="M155.15 37.6211L153.445 29.6956H153.377L151.638 37.6211H155.142H155.15ZM150.811 23.743H155.986L161.743 45.7146H156.923L155.893 41.1725H150.938L149.874 45.7146H145.054L150.811 23.743Z" fill="#F5F5F5"/>
<path d="M168.15 23.869V38.8973C168.15 40.6268 169.087 41.8693 170.852 41.8693C172.785 41.8693 173.553 40.6184 173.553 38.637V23.8606H178.533V38.2172C178.533 43.0111 176.06 45.9832 170.852 45.9832C166.285 45.9832 163.17 43.7164 163.17 38.276V23.8522H168.15V23.869Z" fill="#F5F5F5"/>
<path d="M185.971 34.1369L180.188 23.869H185.65L188.773 29.8803L191.922 23.869H197.358L191.567 34.1369L198 45.7062H192.564L188.773 38.5446L184.974 45.7062H179.546L185.971 34.1369Z" fill="#F5F5F5"/>
<path d="M0 0V45.7817H46.041V0H0ZM38.6714 30.4848C38.6545 30.6023 38.5617 30.703 38.435 30.7282C38.2831 30.7534 38.1311 30.6527 38.0974 30.5016C37.287 27.689 35.6915 25.2123 33.5811 23.2897C33.3447 25.3634 32.6863 27.4203 31.5719 29.3429C30.5589 31.0809 29.2505 32.5417 27.7563 33.7171C30.5336 34.6238 33.5642 34.7666 36.4766 34.0361C36.6285 33.9942 36.7889 34.0697 36.848 34.2208C36.8902 34.3468 36.848 34.4643 36.7551 34.5483C36.5103 34.7078 36.2571 34.8673 36.0038 35.01C31.9181 37.3608 27.216 37.6715 23.0712 36.261C18.9347 37.6715 14.2243 37.3608 10.1469 35.01C9.88523 34.8673 9.63198 34.7078 9.38717 34.5483C9.29431 34.4643 9.2521 34.3468 9.29431 34.2208C9.3534 34.0697 9.51379 33.9942 9.66574 34.0445C12.5866 34.7666 15.6087 34.6238 18.386 33.7171C16.9003 32.5417 15.5918 31.0809 14.5788 29.3429C13.4476 27.4035 12.7892 25.3298 12.5612 23.2393C10.4002 25.1703 8.77936 27.6974 7.96896 30.5603H7.96052C7.92675 30.6695 7.83389 30.7618 7.70727 30.7786C7.54688 30.787 7.41181 30.6863 7.38648 30.5351C7.3696 30.2413 7.35272 29.9558 7.35272 29.662C7.34428 24.8596 9.52223 20.5611 12.9496 17.6897C13.9541 13.7689 16.4782 10.226 20.277 8.03468C20.5386 7.89195 20.7919 7.74922 21.0536 7.62329C21.1971 7.56452 21.3575 7.63168 21.425 7.77441C21.4757 7.89195 21.4504 8.01789 21.3659 8.10184C19.4666 10.0748 18.1496 12.4844 17.4912 15.0535C19.2049 14.407 21.062 14.0376 23.0036 14.0376C25.0043 14.0292 26.9037 14.4154 28.6596 15.0871C28.0011 12.5012 26.6926 10.0832 24.7764 8.10184C24.7173 8.04307 24.692 7.97591 24.692 7.90035C24.692 7.85837 24.692 7.81639 24.7173 7.77441C24.7848 7.63168 24.9452 7.56452 25.0887 7.62329C25.3504 7.74922 25.6121 7.89195 25.8654 8.03468C29.6979 10.2427 32.2304 13.8277 33.2181 17.7905C36.561 20.645 38.6967 24.868 38.7052 29.6032C38.7052 29.8971 38.6967 30.1909 38.6799 30.4848H38.6714ZM17.0522 20.4183C17.2633 22.5844 17.9217 24.7337 19.0867 26.7319C20.1419 28.537 21.501 30.0398 23.0627 31.2404C24.6244 30.0398 25.992 28.537 27.0388 26.7319C28.2037 24.7421 28.8622 22.5928 29.0732 20.4435C27.1991 19.6627 25.1563 19.2261 23.0036 19.2345C20.8932 19.2429 18.8925 19.6711 17.0522 20.4183ZM23.0036 19.2345C20.8932 19.2429 18.8925 19.6711 17.0522 20.4183C17.2633 22.5844 17.9217 24.7337 19.0867 26.7319C20.1419 28.537 21.501 30.0398 23.0627 31.2404C24.6244 30.0398 25.992 28.537 27.0388 26.7319C28.2037 24.7421 28.8622 22.5928 29.0732 20.4435C27.1991 19.6627 25.1563 19.2261 23.0036 19.2345ZM23.0036 19.2345C20.8932 19.2429 18.8925 19.6711 17.0522 20.4183C17.2633 22.5844 17.9217 24.7337 19.0867 26.7319C20.1419 28.537 21.501 30.0398 23.0627 31.2404C24.6244 30.0398 25.992 28.537 27.0388 26.7319C28.2037 24.7421 28.8622 22.5928 29.0732 20.4435C27.1991 19.6627 25.1563 19.2261 23.0036 19.2345Z" fill="#F5F5F5"/>
</svg>
