<svg width="138" height="143" viewBox="0 0 138 143" fill="none" xmlns="http://www.w3.org/2000/svg">
<path d="M14.5195 4.48L22.0715 36.864L41.2715 4.48H47.6715L39.9915 48H34.7435L38.0075 29.376L41.4635 12.992L23.6715 42.88H18.4235L11.5755 12.352L9.14354 29.376L5.87954 48H0.567535L8.24754 4.48H14.5195Z" fill="#F5F5F5"/>
<path d="M56.3468 94.4062L54.8748 84.2942H38.4908L33.4348 94.4062H27.7388L49.8188 50.8862H55.0668L61.9148 94.4062H56.3468ZM44.6988 71.7502L40.9868 79.2382H54.1068L53.0188 71.7502L51.2268 58.4382L44.6988 71.7502ZM70.0523 94.4062L77.7323 50.8862H90.1483C93.519 50.8862 96.3136 51.6542 98.5323 53.1902C100.751 54.7262 102.308 56.8382 103.204 59.5262C104.1 62.2142 104.228 65.3289 103.588 68.8702L102.116 77.5103C101.178 82.7582 99.1936 86.8969 96.1643 89.9262C93.135 92.9129 89.1456 94.4062 84.1963 94.4062H70.0523ZM89.8923 56.1342H82.4043L76.5163 89.2222H84.3883C87.5883 89.2222 90.2123 88.1982 92.2603 86.1502C94.3083 84.1022 95.6736 81.2222 96.3563 77.5103L97.8283 68.8702C98.5536 64.9449 98.2336 61.8516 96.8683 59.5902C95.503 57.2862 93.1776 56.1342 89.8923 56.1342Z" fill="#F5F5F5"/>
<path d="M102.752 142.625L110.432 99.105H122.848C126.218 99.105 129.013 99.873 131.232 101.409C133.45 102.945 135.008 105.057 135.904 107.745C136.8 110.433 136.928 113.548 136.288 117.089L134.816 125.729C133.877 130.977 131.893 135.116 128.864 138.145C125.834 141.132 121.845 142.625 116.896 142.625H102.752ZM122.592 104.353H115.104L109.216 137.441H117.088C120.288 137.441 122.912 136.417 124.96 134.369C127.008 132.321 128.373 129.441 129.056 125.729L130.528 117.089C131.253 113.164 130.933 110.07 129.568 107.809C128.202 105.505 125.877 104.353 122.592 104.353Z" fill="#F5F5F5"/>
</svg>
